<svg width="50" height="50" viewBox="0 0 50 50" fill="none" xmlns="http://www.w3.org/2000/svg">
<g clip-path="url(#clip0_56_1661)">
<path d="M48.942 42.9991H47.0588V39.3109C47.0588 38.9888 46.9362 38.6798 46.718 38.452C46.4997 38.2242 46.2037 38.0963 45.8951 38.0963H43.4829V15.4593H48.9632C49.1973 15.4557 49.4237 15.3711 49.6069 15.2188C49.79 15.0665 49.9196 14.8551 49.9752 14.6177C50.0309 14.3803 50.0095 14.1303 49.9144 13.9069C49.8194 13.6836 49.656 13.4994 49.4499 13.3834L25.4973 0.132494C25.3442 0.0474233 25.1734 0.00292969 25 0.00292969C24.8266 0.00292969 24.6558 0.0474233 24.5028 0.132494L0.571322 13.4055C0.375277 13.5262 0.221787 13.7098 0.133648 13.9289C0.0455098 14.1479 0.0274243 14.3908 0.0820781 14.6215C0.136732 14.8522 0.26121 15.0583 0.437023 15.2092C0.612837 15.3601 0.830608 15.4479 1.05799 15.4593H6.53831V38.0963H4.10497C3.79631 38.0963 3.5003 38.2242 3.28205 38.452C3.0638 38.6798 2.94119 38.9888 2.94119 39.3109V42.9991H1.05799C0.913549 42.9988 0.770583 43.0294 0.637903 43.089C0.505223 43.1486 0.385639 43.2359 0.286519 43.3456C0.1874 43.4552 0.110845 43.5849 0.0615705 43.7266C0.0122964 43.8684 -0.00865263 44.0191 1.41641e-05 44.1696V48.962C1.41641e-05 49.2549 0.111479 49.5357 0.309889 49.7428C0.508298 49.9499 0.777398 50.0662 1.05799 50.0662H48.942C49.2226 50.0662 49.4917 49.9499 49.6901 49.7428C49.8885 49.5357 50 49.2549 50 48.962V44.1696C50.0087 44.0191 49.9877 43.8684 49.9385 43.7266C49.8892 43.5849 49.8126 43.4552 49.7135 43.3456C49.6144 43.2359 49.4948 43.1486 49.3621 43.089C49.2294 43.0294 49.0865 42.9988 48.942 42.9991ZM41.3458 38.1184H39.6742V15.4593H41.3458V38.1184ZM16.6314 15.4593V38.0963H12.3995V15.4593H16.6314ZM18.7474 15.4593H20.419V38.0963H18.7474V15.4593ZM22.5349 15.4593H27.5074V38.0963H22.5349V15.4593ZM29.6234 15.4593H31.295V38.0963H29.6234V15.4593ZM33.4109 15.4593H37.6428V38.0963H33.4109V15.4593ZM24.9471 2.34097L44.7101 13.2509H5.31106L24.9471 2.34097ZM8.65427 15.4593H10.3259V38.0963H8.65427V15.4593ZM5.26874 40.5256H44.7313V42.8887H5.26874V40.5256ZM47.8841 47.7915H2.11597V45.2076H3.63946C3.79304 45.2403 3.95138 45.2403 4.10497 45.2076H45.8951C46.0487 45.2403 46.207 45.2403 46.3606 45.2076H47.8841V47.7915Z" fill="black"/>
<path d="M25.0106 11.6608C25.63 11.6608 26.2354 11.4691 26.7504 11.1099C27.2654 10.7508 27.6668 10.2403 27.9038 9.64303C28.1408 9.04578 28.2029 8.38858 28.082 7.75455C27.9612 7.12051 27.6629 6.53811 27.225 6.081C26.787 5.62388 26.229 5.31258 25.6215 5.18646C25.0141 5.06035 24.3844 5.12507 23.8122 5.37246C23.2399 5.61985 22.7508 6.03879 22.4067 6.5763C22.0626 7.11381 21.879 7.74575 21.879 8.39221C21.879 8.82144 21.96 9.24647 22.1173 9.64303C22.2747 10.0396 22.5054 10.3999 22.7962 10.7034C23.087 11.0069 23.4322 11.2477 23.8122 11.412C24.1921 11.5762 24.5993 11.6608 25.0106 11.6608ZM25.0106 7.2438C25.2115 7.2438 25.4078 7.30597 25.5748 7.42245C25.7419 7.53894 25.8721 7.7045 25.9489 7.8982C26.0258 8.0919 26.0459 8.30505 26.0067 8.51068C25.9675 8.71631 25.8708 8.9052 25.7288 9.05345C25.5867 9.20171 25.4057 9.30267 25.2087 9.34357C25.0117 9.38448 24.8075 9.36348 24.6219 9.28325C24.4363 9.20301 24.2777 9.06714 24.1661 8.89281C24.0545 8.71849 23.9949 8.51353 23.9949 8.30387C24.0162 8.0383 24.1325 7.79084 24.3207 7.61077C24.509 7.43069 24.7553 7.33121 25.0106 7.33214V7.2438Z" fill="black"/>
</g>
<defs>
<clipPath id="clip0_56_1661">
<rect width="50" height="50" fill="white"/>
</clipPath>
</defs>
</svg>
