<svg width="50" height="50" viewBox="0 0 50 50" fill="none" xmlns="http://www.w3.org/2000/svg">
<g clip-path="url(#clip0_59_1729)">
<path d="M14.2105 40.2632H12.6316V41.8421H14.2105V40.2632Z" fill="black"/>
<path d="M14.2105 37.1052H12.6316V38.6841H14.2105V37.1052Z" fill="black"/>
<path d="M14.2105 43.4211H12.6316V45H14.2105V43.4211Z" fill="black"/>
<path d="M17.3683 43.4211H15.7894V45H17.3683V43.4211Z" fill="black"/>
<path d="M17.3683 40.2632H15.7894V41.8421H17.3683V40.2632Z" fill="black"/>
<path d="M17.3683 37.1052H15.7894V38.6841H17.3683V37.1052Z" fill="black"/>
<path d="M23.6841 37.1052H22.1052V38.6841H23.6841V37.1052Z" fill="black"/>
<path d="M23.6841 43.4211H22.1052V45H23.6841V43.4211Z" fill="black"/>
<path d="M23.6841 40.2632H22.1052V41.8421H23.6841V40.2632Z" fill="black"/>
<path d="M26.8421 37.1052H25.2632V38.6841H26.8421V37.1052Z" fill="black"/>
<path d="M26.8421 40.2632H25.2632V41.8421H26.8421V40.2632Z" fill="black"/>
<path d="M26.8421 43.4211H25.2632V45H26.8421V43.4211Z" fill="black"/>
<path d="M0 0.526245V34.7368H9.47373V49.4736H30V34.7368H38.9474V49.4736H50V0.526245H0ZM48.4211 47.8947H40.5264V33.1579H28.4211V47.8947H20.5264V33.9473H18.9475V47.8947H11.0527V33.1579H1.5791V2.10525H48.4212V47.8947H48.4211Z" fill="black"/>
<path d="M43.6841 43.4211H42.1052V45H43.6841V43.4211Z" fill="black"/>
<path d="M43.6841 40.2632H42.1052V41.8421H43.6841V40.2632Z" fill="black"/>
<path d="M43.6841 37.1052H42.1052V38.6841H43.6841V37.1052Z" fill="black"/>
<path d="M46.8421 37.1052H45.2632V38.6841H46.8421V37.1052Z" fill="black"/>
<path d="M46.8421 40.2632H45.2632V41.8421H46.8421V40.2632Z" fill="black"/>
<path d="M46.8421 43.4211H45.2632V45H46.8421V43.4211Z" fill="black"/>
<path d="M4.21057 6.84204V28.4209H26.8421V6.84204H4.21057ZM6.56731 26.842L12.1886 19.2533L16.6413 22.456H19.5921L24.1071 26.842H6.56731ZM25.2632 25.7639L20.2325 20.8771H17.15L11.8464 17.0623L5.78948 25.2393V8.42104H25.2632V25.7639Z" fill="black"/>
<path d="M18.1579 10.3508C16.2716 10.3508 14.7368 11.8856 14.7368 13.7719C14.7368 15.6583 16.2716 17.193 18.1579 17.193C20.0442 17.193 21.579 15.6583 21.579 13.7719C21.5789 11.8855 20.0442 10.3508 18.1579 10.3508ZM18.1579 15.6139C17.1422 15.6139 16.3158 14.7875 16.3158 13.7718C16.3158 12.7561 17.1423 11.9297 18.1579 11.9297C19.1736 11.9297 20 12.7562 20 13.7718C20 14.7875 19.1735 15.6139 18.1579 15.6139Z" fill="black"/>
<path d="M46.0527 12.8948H29.2106V14.4737H46.0527V12.8948Z" fill="black"/>
<path d="M46.0527 8.94739H29.2106V10.5263H46.0527V8.94739Z" fill="black"/>
<path d="M46.0527 16.842H29.2106V18.4209H46.0527V16.842Z" fill="black"/>
<path d="M46.0527 20.7894H29.2106V22.3683H46.0527V20.7894Z" fill="black"/>
<path d="M37.6317 24.7368H29.2106V26.3157H37.6317V24.7368Z" fill="black"/>
<path d="M4.47368 3.6842H2.89478V5.26311H4.47368V3.6842Z" fill="black"/>
<path d="M47.1052 3.6842H45.5262V5.26311H47.1052V3.6842Z" fill="black"/>
<path d="M4.47368 30H2.89478V31.5789H4.47368V30Z" fill="black"/>
<path d="M47.1052 30H45.5262V31.5789H47.1052V30Z" fill="black"/>
</g>
<defs>
<clipPath id="clip0_59_1729">
<rect width="50" height="50" fill="white"/>
</clipPath>
</defs>
</svg>
