<svg width="50" height="50" viewBox="0 0 50 50" fill="none" xmlns="http://www.w3.org/2000/svg">
<g clip-path="url(#clip0_58_1692)">
<path d="M40.4785 0H9.52148C4.27129 0 0 4.27129 0 9.52148V40.4785C0 45.7287 4.27129 50 9.52148 50H40.4785C45.7287 50 50 45.7287 50 40.4785V9.52148C50 4.27129 45.7287 0 40.4785 0ZM48.5352 40.4785C48.5352 44.921 44.9209 48.5352 40.4785 48.5352H9.52148C5.079 48.5352 1.46484 44.921 1.46484 40.4785V9.52148C1.46484 5.079 5.079 1.46484 9.52148 1.46484H40.4785C44.9209 1.46484 48.5352 5.079 48.5352 9.52148V40.4785Z" fill="black"/>
<path d="M40.625 5.85938H30.0781C29.6735 5.85938 29.3457 6.1873 29.3457 6.5918V10.5056H25.1953C24.7908 10.5056 24.4629 10.8335 24.4629 11.238C24.4629 11.6425 24.7908 11.9704 25.1953 11.9704H39.8926V15.1855C39.8926 17.6895 37.8556 19.7266 35.3516 19.7266C32.8476 19.7266 30.8105 17.6895 30.8105 15.1855V14.1678C30.8105 13.7633 30.4827 13.4354 30.0781 13.4354C29.6735 13.4354 29.3457 13.7633 29.3457 14.1678V15.1855C29.3457 18.4972 32.0399 21.1914 35.3516 21.1914C38.6632 21.1914 41.3574 18.4972 41.3574 15.1855V6.5918C41.3574 6.1873 41.0296 5.85938 40.625 5.85938ZM39.8926 10.5056H30.8105V7.32422H39.8926V10.5056Z" fill="black"/>
<path d="M38.5254 22.6562H15.0879C13.3379 22.6562 11.9141 24.0801 11.9141 25.8301C11.9141 27.5801 13.3379 29.0039 15.0879 29.0039H26.5625V43.4082C26.5625 43.8127 26.8903 44.1406 27.2949 44.1406H43.4082C43.8128 44.1406 44.1406 43.8127 44.1406 43.4082V28.2715C44.1406 25.1752 41.6217 22.6562 38.5254 22.6562ZM27.2949 27.5391H15.0879C14.1456 27.5391 13.3789 26.7724 13.3789 25.8301C13.3789 24.8878 14.1456 24.1211 15.0879 24.1211H38.5254C39.4057 24.1211 40.2222 24.3974 40.8944 24.8666L28.0273 37.7337V28.2715C28.0273 27.867 27.6995 27.5391 27.2949 27.5391ZM42.6758 42.6758H28.0273V40.2344H42.6758V42.6758ZM42.6758 38.7695H29.0632L41.9303 25.9024C42.3995 26.5748 42.6758 27.3913 42.6758 28.2715V38.7695Z" fill="black"/>
<path d="M24.3652 38.7695H10.2539V24.6582C10.2539 24.2537 9.92598 23.9258 9.52148 23.9258H6.5918C6.1873 23.9258 5.85938 24.2537 5.85938 24.6582V39.502C5.85938 39.9064 6.1873 40.2344 6.5918 40.2344H8.78906V43.4082C8.78906 43.8127 9.11699 44.1406 9.52148 44.1406H24.3652C24.7697 44.1406 25.0977 43.8127 25.0977 43.4082V39.502C25.0977 39.0975 24.7697 38.7695 24.3652 38.7695ZM8.78906 38.7695H7.32422V25.3906H8.78906V38.7695ZM23.6328 42.6758H10.2539V40.2344H23.6328V42.6758Z" fill="black"/>
</g>
<defs>
<clipPath id="clip0_58_1692">
<rect width="50" height="50" fill="white"/>
</clipPath>
</defs>
</svg>
