<svg width="64" height="64" viewBox="0 0 64 64" fill="none" xmlns="http://www.w3.org/2000/svg">
<path d="M14.549 40.372L14 40.012L13.451 40.372C11.205 41.846 8.597 42.756 5.908 43.004L5 43.088V46.631C5 52.123 8.487 57.006 13.677 58.779L14 58.89L14.323 58.78C19.513 57.006 23 52.124 23 46.631V43.088L22.092 43.005C19.405 42.756 16.796 41.846 14.549 40.372ZM13 56.327C9.363 54.515 7 50.783 7 46.631V44.889C9.099 44.59 11.129 43.91 13 42.929V56.327ZM21 46.631C21 50.782 18.637 54.515 15 56.327V42.929C16.872 43.911 18.901 44.59 21 44.89V46.631Z" fill="black"/>
<path d="M59 42.522V21H55V13H53V21H51V17H49V21H47V11.586L42.414 7H37V5H35V7H33V1H31V7H29V3H27V7H21.586L17 11.586V17H15V9H13V17H11V13H9V17H5V39.044C4.781 39.055 4.564 39.076 4.343 39.076H1V46.631C1 54.374 6.246 61.092 13.758 62.97L14 63.031L14.242 62.97C17.067 62.264 19.571 60.872 21.596 59H54C58.963 59 63 54.962 63 50C63 46.887 61.41 44.138 59 42.522ZM47 23H57V41.525C56.06 41.191 55.053 41 54 41H47V23ZM22.414 9H41.586L43.586 11H20.414L22.414 9ZM19 13H45V41H27V39.076H23.657C22.036 39.076 20.464 38.765 19 38.187V13ZM7 19H17V37.174C16.18 36.664 15.407 36.069 14.707 35.369L14.338 35H15V29H9V35H13.662L13.293 35.369C11.542 37.12 9.366 38.288 7 38.791V19ZM13 31V33H11V31H13ZM14 60.967C7.511 59.229 3 53.37 3 46.631V41.076H4.343C7.933 41.076 11.326 39.794 14 37.446C16.674 39.794 20.067 41.076 23.657 41.076H25V46.631C25 53.37 20.489 59.229 14 60.967ZM54 57H23.438C25.688 54.118 27 50.502 27 46.631V43H54C57.859 43 61 46.14 61 50C61 53.86 57.859 57 54 57Z" fill="black"/>
<path d="M37.293 46.293L32 51.586L30.707 50.293L29.293 51.707L32 54.414L38.707 47.707L37.293 46.293Z" fill="black"/>
<path d="M46.293 46.293L41 51.586L39.707 50.293L38.293 51.707L41 54.414L47.707 47.707L46.293 46.293Z" fill="black"/>
<path d="M50 51.586L48.707 50.293L47.293 51.707L50 54.414L56.707 47.707L55.293 46.293L50 51.586Z" fill="black"/>
<path d="M35 31H29V37H35V31ZM33 35H31V33H33V35Z" fill="black"/>
<path d="M27 31H21V37H27V31ZM25 35H23V33H25V35Z" fill="black"/>
<path d="M43 31H37V37H43V31ZM41 35H39V33H41V35Z" fill="black"/>
<path d="M35 23H29V29H35V23ZM33 27H31V25H33V27Z" fill="black"/>
<path d="M27 23H21V29H27V23ZM25 27H23V25H25V27Z" fill="black"/>
<path d="M15 21H9V27H15V21ZM13 25H11V23H13V25Z" fill="black"/>
<path d="M43 23H37V29H43V23ZM41 27H39V25H41V27Z" fill="black"/>
<path d="M55 33H49V39H55V33ZM53 37H51V35H53V37Z" fill="black"/>
<path d="M55 25H49V31H55V25ZM53 29H51V27H53V29Z" fill="black"/>
<path d="M35 15H29V21H35V15ZM33 19H31V17H33V19Z" fill="black"/>
<path d="M27 15H21V21H27V15ZM25 19H23V17H25V19Z" fill="black"/>
<path d="M43 15H37V21H43V15ZM41 19H39V17H41V19Z" fill="black"/>
</svg>
