<svg width="64" height="64" viewBox="0 0 64 64" fill="none" xmlns="http://www.w3.org/2000/svg">
<path d="M9.822 3.66663C9.49532 3.66793 9.18253 3.79897 8.95244 4.03088C8.72234 4.26278 8.59379 4.57652 8.59504 4.90321V36.927C8.59504 41.5885 9.97792 45.9255 12.3337 49.5768C12.4011 49.8179 12.5404 50.0328 12.733 50.1927C14.358 52.5463 16.4017 54.5872 18.7572 56.2096C18.9087 56.3843 19.1063 56.5127 19.3274 56.5804C22.9834 58.9453 27.3274 60.3335 31.9988 60.3335C36.6721 60.3335 41.0205 58.9447 44.6775 56.5779C44.8997 56.5101 45.0982 56.3808 45.25 56.2049C47.6115 54.577 49.6599 52.529 51.2862 50.1663C51.4566 50.0165 51.5824 49.8225 51.6495 49.6057C54.0163 45.9487 55.405 41.6004 55.405 36.9271V4.90332C55.4056 4.74076 55.374 4.57958 55.3121 4.42927C55.2502 4.27896 55.1591 4.14248 55.0442 4.02753C54.9292 3.91258 54.7927 3.82152 54.6423 3.75959C54.492 3.69767 54.331 3.66612 54.1684 3.66674L9.822 3.66663ZM11.0586 6.13022H52.9414V36.927C52.9414 40.2946 52.1286 43.4642 50.7209 46.2809L45.4762 31.5814C45.4651 31.5528 45.453 31.5247 45.4399 31.497C45.4382 31.492 45.4364 31.487 45.4346 31.4819C45.356 31.3109 45.2392 31.1602 45.0932 31.0413C44.9473 30.9225 44.776 30.8387 44.5926 30.7963L37.2669 29.1122C37.2422 29.1052 37.2174 29.0988 37.1923 29.0933C37.1843 29.092 37.1763 29.0907 37.1683 29.0895C37.1404 29.0835 37.1123 29.0785 37.0841 29.0744C37.0777 29.0735 37.0712 29.0727 37.0648 29.072C37.0584 29.0711 37.052 29.0703 37.0456 29.0696C36.9641 29.0606 36.8819 29.0597 36.8002 29.067V29.0696C36.6545 29.0851 36.5127 29.1265 36.3816 29.1919C33.4894 30.5826 30.7512 30.7936 27.634 29.1957C27.6284 29.1932 27.6228 29.1907 27.6172 29.1882C27.5614 29.1598 27.5034 29.1357 27.444 29.116C27.4391 29.1147 27.4343 29.1135 27.4295 29.1122C27.3681 29.0934 27.3054 29.0793 27.2419 29.0702C27.2187 29.0671 27.1954 29.0646 27.1721 29.0627C27.1537 29.0611 27.1353 29.0598 27.1168 29.0589C27.1048 29.0588 27.0928 29.0588 27.0807 29.0589C27.0711 29.0588 27.0615 29.0588 27.0519 29.0589C26.9309 29.0614 26.811 29.0816 26.6959 29.119L19.4062 30.7959C19.2054 30.842 19.0194 30.9377 18.8651 31.0743C18.7109 31.2109 18.5934 31.384 18.5233 31.5778L13.2742 46.2702C11.8686 43.4611 11.0585 40.2943 11.0585 36.9294L11.0586 6.13022ZM31.9988 8.59381C26.5711 8.59381 22.1422 13.0226 22.1422 18.4504C22.1422 23.8781 26.5711 28.307 31.9988 28.307C37.4265 28.307 41.8554 23.8781 41.8554 18.4504C41.8555 13.0226 37.4266 8.59381 31.9988 8.59381ZM31.9988 11.0573C36.0952 11.0573 39.3919 14.354 39.3919 18.4504C39.3919 22.5467 36.0951 25.8434 31.9988 25.8434C27.9025 25.8434 24.6082 22.5467 24.6081 18.4504C24.6081 14.354 27.9025 11.0573 31.9988 11.0573ZM26.9586 31.5885C30.42 33.2012 33.8828 32.9885 37.0366 31.5885L43.0848 32.9766V54.6771C39.8689 56.6874 36.0771 57.8672 31.9988 57.8672C27.9205 57.8672 24.1311 56.6874 20.9152 54.6771V32.9766L26.9586 31.5885ZM29.5256 33.2269C29.268 33.2285 29.0173 33.3108 28.8088 33.4622C28.6004 33.6137 28.4447 33.8268 28.3636 34.0714L28.253 34.4032C28.0474 34.3125 27.8435 34.2331 27.6347 34.1265C27.4546 34.0345 27.2547 33.9884 27.0525 33.992V33.9895C26.8282 33.9927 26.609 34.0573 26.4186 34.176C26.2283 34.2947 26.0739 34.4631 25.9723 34.6631C25.8243 34.9538 25.7977 35.2913 25.8983 35.6016C25.9989 35.9119 26.2184 36.1697 26.5088 36.3183C26.831 36.4835 27.1537 36.6082 27.4759 36.742L23.4438 48.8576C23.3577 49.1152 23.3591 49.3941 23.4478 49.6508C23.5366 49.9075 23.7077 50.1276 23.9346 50.277C29.534 53.9037 35.1024 53.2425 40.0198 50.3036C40.2605 50.1596 40.4448 49.9378 40.5423 49.6749C40.6399 49.4121 40.6448 49.1237 40.5563 48.8576L36.517 36.7413C36.8345 36.6147 37.1535 36.4895 37.4649 36.3394C37.6105 36.269 37.7409 36.1706 37.8485 36.0498C37.9561 35.929 38.0389 35.7881 38.0921 35.6353C38.1452 35.4825 38.1678 35.3207 38.1584 35.1592C38.149 34.9976 38.1079 34.8396 38.0374 34.694C37.967 34.5483 37.8686 34.4179 37.7478 34.3102C37.6269 34.2026 37.4861 34.1199 37.3333 34.0667C37.1805 34.0136 37.0187 33.9911 36.8572 34.0004C36.6956 34.0098 36.5375 34.0508 36.3919 34.1213C36.1719 34.2275 35.9535 34.3106 35.7351 34.4029L35.6268 34.0756C35.5245 33.7657 35.3033 33.5091 35.0119 33.3621C34.7205 33.2151 34.3827 33.1898 34.0727 33.2916C33.9183 33.3425 33.7755 33.4233 33.6525 33.5296C33.5296 33.6359 33.4288 33.7654 33.3562 33.9108C33.2835 34.0562 33.2403 34.2144 33.2291 34.3766C33.2178 34.5387 33.2388 34.7015 33.2908 34.8555L33.3774 35.1128C32.465 35.2689 31.5472 35.2738 30.6107 35.1204L30.6997 34.8508C30.7519 34.6975 30.7733 34.5353 30.7627 34.3737C30.7522 34.212 30.7098 34.054 30.638 33.9087C30.5663 33.7635 30.4666 33.6339 30.3447 33.5272C30.2228 33.4205 30.081 33.3388 29.9275 33.287C29.7979 33.2441 29.6622 33.2231 29.5257 33.2248L29.5256 33.2269ZM34.1496 37.4323L37.8377 48.4942C34.0455 50.5173 30.3318 50.8286 26.1623 48.4866L29.836 37.4535C31.2979 37.7279 32.7421 37.7065 34.1496 37.4347V37.4323ZM18.4517 39.097V52.8896C17.1131 51.7528 15.9247 50.4481 14.9079 49.0115L18.4517 39.097ZM45.5484 39.1122L49.0849 49.0193C48.0694 50.4525 46.8843 51.7558 45.5484 52.8903V39.1122Z" fill="black"/>
</svg>
