<svg width="50" height="50" viewBox="0 0 50 50" fill="none" xmlns="http://www.w3.org/2000/svg">
<g clip-path="url(#clip0_59_1705)">
<path d="M49.2676 38.5302H46.6221C46.2176 38.5302 45.8896 38.8582 45.8896 39.2627C45.8896 39.6672 46.2176 39.9951 46.6221 39.9951H48.4802C48.1259 42.3332 46.1024 44.1308 43.667 44.1308H21.5783C22.7981 43.1155 23.6324 41.652 23.8241 39.9951H43.6924C44.0969 39.9951 44.4248 39.6672 44.4248 39.2627C44.4248 38.8582 44.0969 38.5302 43.6924 38.5302H38.7988V33.5815H47.812C49.0185 33.5815 50 32.6 50 31.3935C50 30.2368 49.0975 29.2874 47.9597 29.2111V27.0324C47.9597 25.1339 46.4151 23.5893 44.5166 23.5893H42.6558L41.9979 18.901C43.3925 17.8489 44.2119 16.2189 44.2119 14.4523C44.2119 11.3769 41.7099 8.87488 38.6345 8.87488C38.5958 8.87488 38.5577 8.87703 38.5192 8.87781C37.7146 6.25056 35.2664 4.40417 32.4667 4.40417H6.33301C2.84102 4.40427 0 7.24529 0 10.7373C0 11.1418 0.32793 11.4697 0.732422 11.4697H11.2012V13.8603C11.2012 14.2648 11.5291 14.5927 11.9336 14.5927C12.3381 14.5927 12.666 14.2648 12.666 13.8603V10.7373C12.666 8.7823 11.7752 7.03171 10.3785 5.86912H32.4668C34.5465 5.86912 36.3736 7.19412 37.0523 9.10496C34.7454 9.78874 33.0571 11.9265 33.0571 14.4524C33.0571 16.219 33.8766 17.849 35.2712 18.901L35.0469 20.4993H16.1105C15.7061 20.4993 15.3781 20.8272 15.3781 21.2317C15.3781 21.6362 15.7061 21.9641 16.1105 21.9641H34.8413L34.6132 23.5894H32.7523C32.0178 23.5894 31.3368 23.8214 30.7772 24.2148H16.1104C15.7059 24.2148 15.3779 24.5427 15.3779 24.9472C15.3779 25.3517 15.7059 25.6797 16.1104 25.6797H29.5866C29.4084 26.0952 29.3094 26.5524 29.3094 27.0325V27.9307H16.1104C15.7059 27.9307 15.3779 28.2587 15.3779 28.6632C15.3779 29.0676 15.7059 29.3956 16.1104 29.3956H28.567C27.8029 29.7373 27.2689 30.504 27.2689 31.3936C27.2689 31.4796 27.2745 31.5641 27.2842 31.6475H16.1104C15.7059 31.6475 15.3779 31.9755 15.3779 32.38C15.3779 32.7844 15.7059 33.1124 16.1104 33.1124H28.1055C28.4778 33.4058 28.9472 33.5816 29.4569 33.5816H37.334V38.5303H23.1338C22.7293 38.5303 22.4014 38.8583 22.4014 39.2628C22.4014 41.947 20.2175 44.1309 17.5332 44.1309C14.8494 44.1309 12.666 41.947 12.666 39.2628V16.79C12.666 16.3855 12.3381 16.0576 11.9336 16.0576C11.5291 16.0576 11.2012 16.3855 11.2012 16.79V39.2627C11.2012 42.7547 14.0417 45.5957 17.5332 45.5957H43.667C47.159 45.5957 50 42.7547 50 39.2627C50 38.8582 49.6721 38.5302 49.2676 38.5302ZM11.1462 10.0049H1.51982C1.87412 7.66677 3.89756 5.86912 6.33301 5.86912C8.76846 5.86912 10.7919 7.66677 11.1462 10.0049ZM36.7845 18.6574C36.8246 18.3718 36.6933 18.0892 36.4491 17.9356C35.2424 17.1766 34.5219 15.8745 34.5219 14.4524C34.5219 12.1847 36.3668 10.3398 38.6345 10.3398C40.9021 10.3398 42.7471 12.1847 42.7471 14.4524C42.7471 15.8745 42.0267 17.1766 40.8198 17.9356C40.5757 18.0892 40.4443 18.3718 40.4845 18.6574L41.1766 23.5894H36.0924L36.7845 18.6574ZM32.7523 25.0543H44.5166C45.6073 25.0543 46.4948 25.9417 46.4948 27.0325V29.2056H30.7741V27.0325C30.7741 25.9417 31.6616 25.0543 32.7523 25.0543ZM28.7338 31.3935C28.7338 30.9948 29.0582 30.6704 29.4569 30.6704H47.812C48.2107 30.6704 48.5352 30.9948 48.5352 31.3935C48.5352 31.7923 48.2107 32.1167 47.812 32.1167H29.4569C29.0582 32.1167 28.7338 31.7923 28.7338 31.3935Z" fill="black"/>
<path d="M31.1362 13.2039C31.5407 13.2039 31.8686 12.8759 31.8686 12.4714C31.8686 12.0669 31.5407 11.739 31.1362 11.739H19.4631C19.0586 11.739 18.7307 12.0669 18.7307 12.4714C18.7307 12.8759 19.0586 13.2039 19.4631 13.2039H31.1362Z" fill="black"/>
<path d="M27.4193 36.7885C27.8238 36.7885 28.1517 36.4605 28.1517 36.056C28.1517 35.6515 27.8238 35.3236 27.4193 35.3236H16.1105C15.706 35.3236 15.3781 35.6515 15.3781 36.056C15.3781 36.4605 15.706 36.7885 16.1105 36.7885H27.4193Z" fill="black"/>
</g>
<defs>
<clipPath id="clip0_59_1705">
<rect width="50" height="50" fill="white"/>
</clipPath>
</defs>
</svg>
