<svg width="50" height="50" viewBox="0 0 50 50" fill="none" xmlns="http://www.w3.org/2000/svg">
<g clip-path="url(#clip0_59_1820)">
<path d="M30.8594 17.5781H19.1406C18.3316 17.5781 17.6758 18.234 17.6758 19.043C17.6758 19.852 18.3316 20.5078 19.1406 20.5078H30.8594C31.6684 20.5078 32.3242 19.852 32.3242 19.043C32.3242 18.234 31.6684 17.5781 30.8594 17.5781Z" fill="black"/>
<path d="M48.5352 0C47.7262 0 47.0703 0.655859 47.0703 1.46484V29.2969H40.8613C41.0239 28.8384 41.1133 28.3455 41.1133 27.832V26.1152C42.8183 25.5105 44.043 23.8823 44.043 21.9727V16.1133C44.043 14.1006 42.6824 12.4008 40.833 11.8823L38.6946 3.32871C38.2047 1.36885 36.4516 0 34.4313 0H15.5687C13.5484 0 11.7953 1.36885 11.3053 3.32871L9.16699 11.8823C7.31758 12.4008 5.95703 14.1006 5.95703 16.1133V21.9727C5.95703 23.8823 7.18174 25.5105 8.88672 26.1152V27.832C8.88672 28.3455 8.97607 28.8384 9.13867 29.2969H2.92969V1.46484C2.92969 0.655859 2.27383 0 1.46484 0C0.655859 0 0 0.655859 0 1.46484C0 4.14092 0 45.9973 0 48.5352C0 49.3441 0.655859 50 1.46484 50C2.27383 50 2.92969 49.3441 2.92969 48.5352V38.0859H47.0703V48.5352C47.0703 49.3441 47.7262 50 48.5352 50C49.3441 50 50 49.3441 50 48.5352C50 45.9879 50 4.13252 50 1.46484C50 0.655859 49.3441 0 48.5352 0ZM41.1133 21.9727C41.1133 22.7804 40.4562 23.4375 39.6484 23.4375H38.1836V21.9727C38.1836 21.1649 38.8407 20.5078 39.6484 20.5078H41.1133V21.9727ZM14.1476 4.03926C14.3108 3.38594 14.8953 2.92969 15.5687 2.92969H34.4312C35.1047 2.92969 35.6891 3.38594 35.8523 4.03926L37.7724 11.7188H26.9084L31.672 8.54307C32.3451 8.09424 32.5271 7.18477 32.0783 6.51172C31.6295 5.83848 30.72 5.65664 30.047 6.10537L21.6268 11.7188H12.2276L14.1476 4.03926ZM8.88672 16.1133C8.88672 15.3056 9.54385 14.6484 10.3516 14.6484C10.6932 14.6484 39.3742 14.6484 39.6484 14.6484C40.4562 14.6484 41.1133 15.3056 41.1133 16.1133V17.5781H39.6484C37.2253 17.5781 35.2539 19.5495 35.2539 21.9727V23.4375C34.6502 23.4375 15.5663 23.4375 14.7461 23.4375V21.9727C14.7461 19.5495 12.7747 17.5781 10.3516 17.5781H8.88672V16.1133ZM38.1836 26.3672V27.832C38.1836 28.6397 37.5265 29.2969 36.7188 29.2969C35.911 29.2969 35.2539 28.6397 35.2539 27.832V26.3672H38.1836ZM32.5762 29.2969H17.4238C17.5864 28.8384 17.6758 28.3455 17.6758 27.832V26.3672H32.3242V27.832C32.3242 28.3455 32.4136 28.8384 32.5762 29.2969ZM14.7461 26.3672V27.832C14.7461 28.6397 14.089 29.2969 13.2812 29.2969C12.4735 29.2969 11.8164 28.6397 11.8164 27.832V26.3672H14.7461ZM8.88672 21.9727V20.5078H10.3516C11.1593 20.5078 11.8164 21.1649 11.8164 21.9727V23.4375H10.3516C9.54385 23.4375 8.88672 22.7804 8.88672 21.9727ZM47.0703 35.1562H2.92969V32.2266H47.0703V35.1562Z" fill="black"/>
</g>
<defs>
<clipPath id="clip0_59_1820">
<rect width="50" height="50" fill="white"/>
</clipPath>
</defs>
</svg>
