<svg width="62" height="62" viewBox="0 0 62 62" fill="none" xmlns="http://www.w3.org/2000/svg">
<path d="M14 23C14 23.6 14.4 24 15 24H17C17.6 24 18 23.6 18 23V22H26V23C26 23.6 26.4 24 27 24H29C29.6 24 30 23.6 30 23V21.2C30.6 20.7 31 19.9 31 19V17C31 15.6 30.1 14.5 28.8 14.1L28.1 10.4C27.8 9 26.4 8 24.8 8H19.2C17.6 8 16.2 9 15.9 10.5L15.2 14.2C13.9 14.5 13 15.6 13 17V19C13 19.9 13.4 20.7 14 21.2V23ZM17.8 10.9C17.9 10.4 18.6 10 19.2 10H24.7C25.4 10 26 10.4 26.1 10.9L26.7 14H17.2L17.8 10.9ZM15 17C15 16.4 15.4 16 16 16H28C28.6 16 29 16.4 29 17V19C29 19.6 28.6 20 28 20H27H17H16C15.4 20 15 19.6 15 19V17Z" fill="black"/>
<path d="M18 19C18.5523 19 19 18.5523 19 18C19 17.4477 18.5523 17 18 17C17.4477 17 17 17.4477 17 18C17 18.5523 17.4477 19 18 19Z" fill="black"/>
<path d="M26 19C26.5523 19 27 18.5523 27 18C27 17.4477 26.5523 17 26 17C25.4477 17 25 17.4477 25 18C25 18.5523 25.4477 19 26 19Z" fill="black"/>
<path d="M2 43C2 43.6 2.4 44 3 44H5C5.6 44 6 43.6 6 43V42H14V43C14 43.6 14.4 44 15 44H17C17.6 44 18 43.6 18 43V41.2C18.6 40.7 19 39.9 19 39V37C19 35.6 18.1 34.5 16.8 34.1L16.1 30.4C15.8 29 14.4 28 12.8 28H7.2C5.6 28 4.2 29 3.9 30.5L3.2 34.2C1.9 34.5 1 35.6 1 37V39C1 39.9 1.4 40.7 2 41.2V43ZM5.8 30.9C5.9 30.4 6.6 30 7.2 30H12.7C13.4 30 14 30.4 14.1 30.9L14.7 34H5.2L5.8 30.9ZM3 37C3 36.4 3.4 36 4 36H16C16.6 36 17 36.4 17 37V39C17 39.6 16.6 40 16 40H15H5H4C3.4 40 3 39.6 3 39V37Z" fill="black"/>
<path d="M6 39C6.55228 39 7 38.5523 7 38C7 37.4477 6.55228 37 6 37C5.44772 37 5 37.4477 5 38C5 38.5523 5.44772 39 6 39Z" fill="black"/>
<path d="M14 39C14.5523 39 15 38.5523 15 38C15 37.4477 14.5523 37 14 37C13.4477 37 13 37.4477 13 38C13 38.5523 13.4477 39 14 39Z" fill="black"/>
<path d="M26 44C26 44.6 26.4 45 27 45H29C29.6 45 30 44.6 30 44V43H38V44C38 44.6 38.4 45 39 45H41C41.6 45 42 44.6 42 44V42.2C42.6 41.7 43 40.9 43 40V38C43 36.6 42.1 35.5 40.8 35.1L40.1 31.4C39.8 30 38.4 29 36.8 29H31.2C29.6 29 28.2 30 27.9 31.5L27.2 35.2C25.9 35.5 25 36.6 25 38V40C25 40.9 25.4 41.7 26 42.2V44ZM29.8 31.9C29.9 31.4 30.6 31 31.2 31H36.7C37.4 31 38 31.4 38.1 31.9L38.7 35H29.2L29.8 31.9ZM27 38C27 37.4 27.4 37 28 37H40C40.6 37 41 37.4 41 38V40C41 40.6 40.6 41 40 41H39H29H28C27.4 41 27 40.6 27 40V38Z" fill="black"/>
<path d="M30 40C30.5523 40 31 39.5523 31 39C31 38.4477 30.5523 38 30 38C29.4477 38 29 38.4477 29 39C29 39.5523 29.4477 40 30 40Z" fill="black"/>
<path d="M38 40C38.5523 40 39 39.5523 39 39C39 38.4477 38.5523 38 38 38C37.4477 38 37 38.4477 37 39C37 39.5523 37.4477 40 38 40Z" fill="black"/>
</svg>
