<svg width="50" height="50" viewBox="0 0 50 50" fill="none" xmlns="http://www.w3.org/2000/svg">
<path d="M48.4303 43.5775H46.5123V39.0155C46.5123 38.4556 46.0829 38.0017 45.5533 38.0017H44.1149V33.4397C44.1149 32.8798 43.6855 32.4259 43.1559 32.4259H22.0583C21.5287 32.4259 21.0994 32.8798 21.0994 33.4397V38.0017H19.6609C19.1312 38.0017 18.7019 38.4556 18.7019 39.0155V43.5775H16.7839C16.2543 43.5775 15.825 44.0314 15.825 44.5913C15.825 45.1512 16.2543 45.6051 16.7839 45.6051H19.6609H45.5533H48.4303C48.9599 45.6051 49.3892 45.1512 49.3892 44.5913C49.3892 44.0314 48.9599 43.5775 48.4303 43.5775ZM23.0173 34.4535H42.1969V38.0017H23.0173V34.4535ZM20.6199 43.5775V40.0293H44.5943V43.5775H20.6199Z" fill="black"/>
<path d="M24.5075 26.9143L23.1514 28.3479C22.7769 28.7438 22.7769 29.3858 23.1514 29.7817C23.3386 29.9796 23.5841 30.0786 23.8295 30.0786C24.0749 30.0786 24.3204 29.9796 24.5076 29.7817L34.3401 19.3873C34.7146 18.9914 34.7146 18.3495 34.3401 17.9536C33.9655 17.5577 33.3584 17.5577 32.9838 17.9536L31.9667 19.0289L29.5938 16.5204C29.5937 16.5202 29.5936 16.52 29.5934 16.5199L26.3724 13.1148L20.7781 7.20087L21.7952 6.12561C22.1697 5.7297 22.1697 5.08778 21.7952 4.69187C21.4207 4.29607 20.8135 4.29607 20.439 4.69187L10.6065 15.0862C10.232 15.4821 10.232 16.124 10.6065 16.5199C10.7938 16.7179 11.0391 16.8168 11.2846 16.8168C11.53 16.8168 11.7755 16.7178 11.9627 16.5199L13.3189 15.0862L15.692 17.595C15.6921 17.5951 15.6922 17.5951 15.6922 17.5952L17.0484 19.0289L2.80876 34.0822C2.8086 34.0824 2.80843 34.0825 2.80827 34.0827C2.8081 34.0829 2.80799 34.0831 2.80783 34.0832L1.45208 35.5165C0.330427 36.7023 0.330427 38.6318 1.45208 39.8176C2.01294 40.4105 2.74969 40.707 3.48645 40.707C4.22315 40.707 4.9599 40.4105 5.52078 39.8176L21.1171 23.3301L24.5075 26.9143ZM27.559 17.2367L22.8124 22.2547L21.7957 21.1799C21.7955 21.1798 21.7954 21.1796 21.7952 21.1794C21.7951 21.1793 21.7949 21.1791 21.7947 21.179L19.0837 18.313C19.0834 18.3127 19.0831 18.3123 19.0828 18.312C19.0825 18.3117 19.0822 18.3114 19.0819 18.311L17.7266 16.8783L22.4733 11.8604L27.559 17.2367ZM28.2371 22.9716L25.8638 25.4805L24.1685 23.6884L28.9152 18.6705L30.6104 20.4625L28.2371 22.9716ZM19.4219 8.63456L21.1171 10.4267L16.3704 15.4446L14.6751 13.6525L19.4219 8.63456ZM6.1989 36.2333L4.84266 34.7995L15.6923 23.33L17.0485 24.7637L6.1989 36.2333ZM2.80835 38.3839C2.43445 37.9886 2.43445 37.3454 2.8083 36.9501L3.4864 36.2333L4.84264 37.667L4.16454 38.3839C3.79071 38.7791 3.1823 38.7791 2.80835 38.3839ZM18.4047 23.33L17.0485 21.8963L18.4047 20.4626L18.9132 21.0002L19.7609 21.8963L18.4047 23.33Z" fill="black"/>
</svg>
