<svg width="50" height="50" viewBox="0 0 50 50" fill="none" xmlns="http://www.w3.org/2000/svg">
<path d="M33.1865 1.93994H33.0768C31.4652 1.93994 30.154 3.25117 30.154 4.86279V32.4981C30.154 34.2624 29.5151 36.02 28.3551 37.4472C27.4166 38.6022 26.8997 40.0594 26.8997 41.5503C26.8997 45.1398 29.8198 48.0601 33.4093 48.0601H34.348L31.9827 43.2225L32.4709 41.6145H34.7745L36.7614 46.2506L37.3624 45.771C37.4472 45.7034 38.2067 45.0653 38.7688 43.5121C38.7959 43.4374 38.8216 43.3625 38.8464 43.2871C39.6607 40.8052 39.1045 37.9823 37.3948 35.9201C36.8278 35.2361 36.4354 34.4328 36.2599 33.5968C36.16 33.1205 36.1092 32.6321 36.1092 32.1454V4.86279C36.1093 3.25117 34.7982 1.93994 33.1865 1.93994ZM31.3258 10.9424H32.5755V29.5936H33.7474V10.9424H34.9375V32.1454C34.9375 32.4745 34.9598 32.8039 34.9992 33.1312H31.3003C31.316 32.9207 31.3259 32.7096 31.3259 32.4982V10.9424H31.3258ZM34.9375 9.77051H31.3259V9.33926H34.9375V9.77051ZM33.0768 3.11182H33.1865C34.152 3.11182 34.9375 3.89727 34.9375 4.86279V8.16729H31.3259V4.86279C31.3258 3.89727 32.1113 3.11182 33.0768 3.11182ZM36.4927 36.668C37.9476 38.4229 38.423 40.8191 37.7331 42.9216C37.7121 42.9855 37.6902 43.0493 37.667 43.1131C37.5024 43.568 37.3195 43.9233 37.1537 44.1909L35.5473 40.4426H31.6021L30.7276 43.323L32.4263 46.7973C29.9509 46.3346 28.0716 44.1577 28.0716 41.5502C28.0716 40.3275 28.4953 39.133 29.2647 38.1862C30.1976 37.0386 30.8348 35.7012 31.1328 34.303H35.2307C35.4793 35.1552 35.9099 35.9651 36.4927 36.668Z" fill="black"/>
<path d="M33.1615 6.42305C34.0186 6.42305 34.716 5.72568 34.716 4.86855C34.716 4.01133 34.0186 3.31396 33.1615 3.31396C32.3043 3.31396 31.6068 4.01133 31.6068 4.86855C31.6068 5.72568 32.3043 6.42305 33.1615 6.42305ZM33.1615 4.48584C33.3724 4.48584 33.5441 4.65742 33.5441 4.86855C33.5441 5.07959 33.3724 5.25117 33.1615 5.25117C32.9504 5.25117 32.7787 5.07949 32.7787 4.86855C32.7787 4.65742 32.9504 4.48584 33.1615 4.48584Z" fill="black"/>
<path d="M33.7474 30.7649H32.5756V32.6762H33.7474V30.7649Z" fill="black"/>
<path d="M18.5141 43.5769C17.6568 43.5769 16.9595 44.2743 16.9595 45.1315C16.9595 45.9887 17.6568 46.6861 18.5141 46.6861C19.3713 46.6861 20.0687 45.9887 20.0687 45.1315C20.0687 44.2743 19.3713 43.5769 18.5141 43.5769ZM18.5141 45.5141C18.303 45.5141 18.1313 45.3424 18.1313 45.1314C18.1313 44.9204 18.303 44.7487 18.5141 44.7487C18.7251 44.7487 18.8968 44.9204 18.8968 45.1314C18.8968 45.3424 18.7252 45.5141 18.5141 45.5141Z" fill="black"/>
<path d="M23.7892 11.8489C24.4153 10.8281 24.7462 9.65273 24.7462 8.44971C24.7462 4.86016 21.826 1.93994 18.2364 1.93994H17.2977L19.663 6.77754L19.1748 8.38535H16.8712L14.8843 3.74941L14.2832 4.2291C14.1995 4.2959 12.3176 5.85244 12.2839 10.1694H10.7845V12.9141L11.3042 13.2135C11.7258 13.4548 12.1264 13.7324 12.4963 14.0396C12.5856 14.1135 12.6743 14.19 12.7594 14.2665C14.5243 15.8585 15.5365 18.1348 15.5365 20.5116V45.137C15.5365 46.7487 16.8478 48.0601 18.4595 48.0601H18.5687C20.1805 48.0601 21.4918 46.7487 21.4918 45.137V21.4412V20.0937C21.4919 17.1503 22.2862 14.2993 23.7892 11.8489ZM14.4935 5.8124L15.7719 8.79512L14.0763 10.1694H13.4551C13.4745 7.90889 14.0475 6.53828 14.4935 5.8124ZM13.5436 13.3957C13.446 13.3079 13.3449 13.2207 13.2443 13.1375C12.8437 12.8047 12.4105 12.5018 11.9565 12.2369V11.3413H14.4915L16.6926 9.55723H20.0437L20.9182 6.67686L19.2195 3.20254C21.6948 3.66523 23.5743 5.84209 23.5743 8.44971C23.5743 9.43643 23.3032 10.3999 22.7902 11.2362C21.1742 13.871 20.32 16.9339 20.3199 20.0937V21.4413V39.0577H19.1V20.4064H17.9281V39.0577H16.7084V20.5117C16.7085 17.8036 15.5552 15.2102 13.5436 13.3957ZM16.7085 40.2296H20.32V40.6607H16.7085V40.2296ZM18.5688 46.8882H18.4596C17.494 46.8882 16.7085 46.1025 16.7085 45.137V41.8326H20.32V45.137C20.32 46.1025 19.5344 46.8882 18.5688 46.8882Z" fill="black"/>
<path d="M20.3077 10.8525H15.5523V14.241H20.3077V10.8525ZM16.7242 12.0244H17.3441V13.0691H16.7242V12.0244ZM19.1358 13.0691H18.516V12.0244H19.1358V13.0691Z" fill="black"/>
<path d="M19.1 17.3237H17.9281V19.2352H19.1V17.3237Z" fill="black"/>
</svg>
