<svg width="50" height="38" viewBox="0 0 50 38" fill="none" xmlns="http://www.w3.org/2000/svg">
<path d="M45.7484 37.7208H4.25317C3.83889 37.7208 3.45476 37.5057 3.2373 37.1525C1.15 33.743 0 29.4541 0 25.0715C0 11.4017 11.2151 0.280273 25.0008 0.280273C38.7849 0.280273 50 11.435 50 25.1461C50 29.543 48.881 33.6946 46.7635 37.1517C46.5468 37.5057 46.1619 37.7208 45.7484 37.7208ZM4.93413 35.3382H45.0675C46.7389 32.3723 47.619 28.8636 47.619 25.1461C47.619 12.7485 37.473 2.66202 25.0008 2.66202C12.5278 2.66281 2.38095 12.7144 2.38095 25.0715C2.38095 28.7771 3.28413 32.3954 4.93413 35.3382Z" fill="black"/>
</svg>
