<svg width="58" height="50" viewBox="0 0 58 50" fill="none" xmlns="http://www.w3.org/2000/svg">
<path d="M11.7594 0.361199C11.5555 0.361606 11.3549 0.412537 11.1756 0.509529C10.9964 0.606522 10.8439 0.74652 10.732 0.916917L0.875067 15.694C0.750677 15.8797 0.679159 16.0957 0.668175 16.319C0.657192 16.5423 0.707157 16.7643 0.812717 16.9613C0.918277 17.1584 1.07545 17.3229 1.26741 17.4375C1.45936 17.552 1.67886 17.6122 1.90239 17.6115H4.36843V43.4098C4.36773 43.4339 4.36773 43.458 4.36843 43.482V45.9456C4.36843 46.3772 4.45615 46.7865 4.59459 47.1726H4.36843C4.20565 47.1717 4.0443 47.203 3.8937 47.2648C3.74309 47.3266 3.60623 47.4176 3.49101 47.5326C3.3758 47.6476 3.28452 47.7843 3.22245 47.9348C3.16038 48.0853 3.12875 48.2466 3.12939 48.4093C3.1297 48.5715 3.16204 48.732 3.22453 48.8817C3.28703 49.0313 3.37846 49.1672 3.49358 49.2814C3.6087 49.3957 3.74524 49.486 3.89537 49.5473C4.0455 49.6086 4.20626 49.6397 4.36843 49.6388H8.05908H49.941H53.6437C53.9691 49.6375 54.2808 49.5075 54.5107 49.2772C54.7406 49.0468 54.87 48.7348 54.8707 48.4093C54.8713 48.2476 54.8401 48.0873 54.7787 47.9376C54.7174 47.7879 54.6272 47.6517 54.5133 47.5369C54.3993 47.4221 54.2639 47.3308 54.1147 47.2683C53.9655 47.2058 53.8054 47.1733 53.6437 47.1726H53.4151C53.5541 46.7867 53.6437 46.3771 53.6437 45.9456V17.6114H56.0977C56.3212 17.6121 56.5407 17.5519 56.7326 17.4374C56.9246 17.3228 57.0817 17.1582 57.1873 16.9612C57.2929 16.7642 57.3428 16.5422 57.3319 16.319C57.3209 16.0957 57.2494 15.8797 57.125 15.694L47.268 0.916917C47.157 0.747864 47.0061 0.608649 46.8287 0.511721C46.6512 0.414792 46.4525 0.363078 46.2503 0.361084L11.7594 0.361199ZM12.4138 2.82479H45.5863L53.7976 15.1478H37.3726C37.7703 13.2182 37.8428 11.1044 37.6204 8.82753C37.5892 8.51059 37.4364 8.21803 37.1942 8.01126C36.952 7.80448 36.6391 7.69949 36.3212 7.71841C35.0361 7.79891 33.9328 7.89911 32.9553 7.69199C32.0794 7.50491 31.2362 7.0834 30.2776 6.05114C30.2014 5.85127 30.0746 5.67474 29.9095 5.53879C29.7015 5.36683 29.4429 5.26793 29.1733 5.25724C29.1484 5.25648 29.1235 5.25648 29.0987 5.25724C29.0899 5.25634 29.0811 5.25553 29.0722 5.25482V5.25724C29.0714 5.25724 29.0706 5.25724 29.0698 5.25724C28.7606 5.24072 28.4565 5.34122 28.2181 5.53879C28.0579 5.67093 27.9338 5.84133 27.8572 6.0343C26.8933 7.0796 26.053 7.50612 25.1722 7.69441C24.1948 7.90342 23.0938 7.80095 21.8088 7.72083C21.4904 7.70127 21.1769 7.80592 20.9342 8.01276C20.6914 8.2196 20.5384 8.51257 20.5072 8.82996C20.2848 11.1067 20.3552 13.2206 20.7502 15.1502H4.21205L12.4138 2.82479ZM29.065 8.31749C30.1639 9.30331 31.3163 9.86041 32.4381 10.1002C33.3812 10.3017 34.1804 10.1978 35.0196 10.1558C35.1459 12.9681 34.9706 15.5249 34.0284 17.4577C33.0267 19.5122 31.4285 21.1245 29.065 22.3273C26.7015 21.124 25.1009 19.5122 24.0992 17.4577C23.1569 15.5248 22.9721 12.9682 23.0984 10.1558C23.9385 10.1978 24.7452 10.3024 25.6895 10.1002C26.8113 9.8606 27.966 9.30331 29.065 8.31749ZM6.83207 17.6115H21.4792C21.6038 17.9256 21.7339 18.2385 21.881 18.5401C23.1496 21.1423 25.2789 23.2021 28.158 24.6222C28.2763 24.7343 28.4157 24.8218 28.5681 24.8796C28.7205 24.9374 28.8828 24.9644 29.0457 24.959C29.2182 24.9701 29.3911 24.9447 29.5532 24.8846C29.7153 24.8245 29.8629 24.731 29.9864 24.6101C32.8534 23.1903 34.9742 21.1327 36.2394 18.5376C36.3864 18.236 36.5164 17.9258 36.6412 17.6114H51.18V42.2453H36.3934V34.8616C36.72 34.8603 37.0328 34.7294 37.2629 34.4975C37.493 34.2656 37.6216 33.9517 37.6204 33.625V28.6953C37.619 28.3703 37.4893 28.059 37.2595 27.8292C37.0297 27.5994 36.7184 27.4697 36.3934 27.4684H21.6067C21.2817 27.4697 20.9703 27.5994 20.7405 27.8292C20.5107 28.059 20.381 28.3704 20.3797 28.6954V33.6251C20.3784 33.9518 20.507 34.2656 20.7371 34.4975C20.9672 34.7294 21.28 34.8604 21.6067 34.8617V42.2455H6.83207V17.6115ZM10.5227 27.4684C10.1977 27.4697 9.88635 27.5994 9.65653 27.8292C9.4267 28.059 9.29701 28.3704 9.29571 28.6954V37.3157C9.13314 37.3151 8.97204 37.3467 8.82172 37.4086C8.67139 37.4705 8.53481 37.5616 8.41985 37.6765C8.30489 37.7915 8.21383 37.9281 8.15191 38.0784C8.08999 38.2287 8.05844 38.3899 8.05908 38.5524C8.06036 38.8791 8.19137 39.1919 8.42328 39.422C8.65519 39.6521 8.96902 39.7807 9.29571 39.7794H17.916C18.2411 39.7782 18.5524 39.6485 18.7823 39.4187C19.0121 39.1888 19.1418 38.8775 19.1431 38.5524C19.1437 38.3907 19.1125 38.2304 19.0511 38.0807C18.9898 37.931 18.8996 37.7948 18.7857 37.68C18.6717 37.5652 18.5363 37.4739 18.3871 37.4114C18.2379 37.3489 18.0778 37.3164 17.916 37.3157V28.6954C17.9148 28.3704 17.7851 28.059 17.5552 27.8292C17.3254 27.5994 17.0141 27.4697 16.689 27.4684H10.5227ZM41.323 27.4684C41.1611 27.4675 41.0005 27.4985 40.8506 27.5597C40.7006 27.6208 40.5642 27.711 40.4491 27.8249C40.334 27.9389 40.2425 28.0745 40.1799 28.2239C40.1172 28.3733 40.0846 28.5335 40.084 28.6954V37.3157C39.9222 37.3164 39.7622 37.3489 39.613 37.4114C39.4638 37.4739 39.3283 37.5652 39.2144 37.68C39.1004 37.7948 39.0102 37.931 38.9489 38.0807C38.8876 38.2304 38.8564 38.3907 38.857 38.5524C38.8583 38.8775 38.988 39.1888 39.2178 39.4187C39.4476 39.6485 39.759 39.7782 40.084 39.7794H48.714C49.039 39.7782 49.3503 39.6485 49.5802 39.4187C49.81 39.1888 49.9397 38.8775 49.941 38.5524C49.9416 38.3907 49.9104 38.2304 49.8491 38.0807C49.7877 37.931 49.6975 37.7948 49.5836 37.68C49.4697 37.5652 49.3342 37.4739 49.185 37.4114C49.0358 37.3489 48.8757 37.3164 48.714 37.3157V28.6954C48.7127 28.3687 48.5816 28.056 48.3497 27.8259C48.1178 27.5958 47.804 27.4672 47.4773 27.4684H41.323ZM11.7594 29.9321H15.4524V37.3157H11.7594V29.9321ZM22.8457 29.9321H35.1663V32.3981H22.8457V29.9321ZM42.55 29.9321H46.2503V37.3157H42.55V29.9321ZM24.0727 34.8617H27.773V39.7794C27.6104 39.7788 27.4494 39.8104 27.299 39.8723C27.1487 39.9342 27.0121 40.0253 26.8972 40.1402C26.7822 40.2552 26.6911 40.3918 26.6292 40.5421C26.5673 40.6924 26.5358 40.8535 26.5364 41.016C26.5367 41.178 26.569 41.3383 26.6313 41.4878C26.6937 41.6373 26.7849 41.773 26.8997 41.8872C27.0146 42.0014 27.1509 42.0918 27.3007 42.1533C27.4506 42.2148 27.6111 42.2461 27.773 42.2455V47.1728H24.0727V34.8617ZM30.2367 34.8617H33.9297V47.1728H30.2367V42.2455C30.5621 42.2442 30.8738 42.1142 31.1037 41.8839C31.3336 41.6535 31.463 41.3415 31.4637 41.016C31.4643 40.8543 31.4331 40.694 31.3717 40.5443C31.3104 40.3946 31.2202 40.2584 31.1063 40.1436C30.9923 40.0288 30.8569 39.9376 30.7077 39.8751C30.5585 39.8126 30.3984 39.7801 30.2367 39.7794V34.8617ZM6.83207 44.7092H21.6067V47.1728H8.05908C7.36417 47.1728 6.83207 46.6407 6.83207 45.9458V44.7092ZM36.3934 44.7092H51.18V45.9458C51.18 46.6407 50.6359 47.1728 49.941 47.1728H36.3934V44.7092Z" fill="black"/>
</svg>
