<svg width="50" height="50" viewBox="0 0 50 50" fill="none" xmlns="http://www.w3.org/2000/svg">
<path d="M49.3065 39.1544L28.9315 6.00615C28.0856 4.62821 26.6147 3.8064 25.0005 3.8064C23.3843 3.8064 21.9145 4.62821 21.0685 6.00615L0.693545 39.1544C-0.194854 40.5999 -0.232191 42.3475 0.595587 43.8284C1.42238 45.3093 2.92859 46.1936 4.62451 46.1936H45.3754C47.0703 46.1936 48.5775 45.3093 49.4043 43.8284C50.2322 42.3464 50.1949 40.5999 49.3065 39.1544ZM47.6327 42.837C47.1682 43.6669 46.3253 44.1615 45.3754 44.1615H4.62451C3.67459 44.1615 2.83162 43.6669 2.36724 42.837C1.90392 42.0073 1.92508 41.029 2.42279 40.2194L22.7977 7.06914C23.2712 6.2979 24.0949 5.83752 25.0004 5.83752C25.9049 5.83752 26.7287 6.2979 27.2021 7.07012L47.5781 40.2184C48.0749 41.028 48.0951 42.0073 47.6327 42.837ZM25.1186 11.5726C24.5573 11.5726 24.103 12.0268 24.103 12.5881V29.8588C24.103 30.4201 24.5573 30.8745 25.1186 30.8745C25.6799 30.8745 26.1342 30.4201 26.1342 29.8588V12.5881C26.1332 12.0268 25.6789 11.5726 25.1186 11.5726ZM25.1186 33.9231C24.5573 33.9231 24.103 34.3775 24.103 34.9387V39.002C24.103 39.5633 24.5573 40.0176 25.1186 40.0176C25.6799 40.0176 26.1342 39.5633 26.1342 39.002V34.9387C26.1332 34.3774 25.6789 33.9231 25.1186 33.9231Z" fill="black"/>
</svg>
