<svg width="51" height="46" viewBox="0 0 51 46" fill="none" xmlns="http://www.w3.org/2000/svg">
<g clip-path="url(#clip0_29_136)">
<path d="M25.5 20.7529C31.2317 20.7529 35.8939 16.1004 35.8939 10.3806C35.8939 4.66087 31.2317 0 25.5 0C19.7684 0 15.1062 4.65253 15.1062 10.3723C15.1062 16.0921 19.7684 20.7529 25.5 20.7529ZM25.5 0.833786C30.7721 0.833786 35.0583 5.11111 35.0583 10.3723C35.0583 15.6335 30.7721 19.9108 25.5 19.9108C20.2279 19.9108 15.9417 15.6335 15.9417 10.3723C15.9417 5.11111 20.2279 0.833786 25.5 0.833786Z" fill="black"/>
<path d="M47.6914 33.635H45.0428C40.8902 26.8897 33.4291 22.7124 25.5 22.7124C17.5709 22.7124 10.1098 26.8897 5.95724 33.635H3.30865C1.48722 33.635 0 35.1191 0 36.9368V40.9473C0 42.7733 1.48722 44.2491 3.30865 44.2491H10.1515C10.9954 44.2491 11.6805 43.5654 11.6805 42.7233V35.1525C11.6805 34.3104 10.9954 33.6267 10.1515 33.6267H6.95151C7.72854 32.426 8.62254 31.3171 9.6001 30.2999L17.7213 38.4043C17.1281 39.0546 16.6017 39.78 16.1673 40.5804H12.2821V42.5565C12.2821 43.8239 11.2461 44.8494 9.98444 44.8494H3.952V45.9917H47.0564V44.8578H41.0239C39.7539 44.8578 38.7262 43.8239 38.7262 42.5649V40.5888H34.8411C34.4066 39.7884 33.8886 39.063 33.287 38.4126L41.4083 30.3082C42.3942 31.3254 43.2798 32.4344 44.0568 33.635H40.8568C40.0129 33.635 39.3278 34.3187 39.3278 35.1608V42.7316C39.3278 43.5737 40.0129 44.2574 40.8568 44.2574H47.6997C49.5295 44.2574 51.0084 42.7733 51.0084 40.9557V36.9368C51 35.1191 49.5211 33.635 47.6914 33.635ZM10.845 35.1525V36.5449H5.24705V37.3787H10.845V40.1802H5.24705V41.014H10.845V42.7149C10.845 43.0985 10.5359 43.407 10.1515 43.407H3.30865C1.94676 43.4153 0.835518 42.3064 0.835518 40.9473V36.9368C0.835518 35.5777 1.94676 34.4688 3.30865 34.4688H10.1515C10.5275 34.4688 10.845 34.7773 10.845 35.1525ZM40.8067 29.7162L32.6855 37.8206C30.7638 36.0363 28.2154 35.0108 25.4916 35.0108C22.7679 35.0108 20.2195 36.0363 18.2978 37.8206L10.1766 29.7162C14.2456 25.8224 19.7433 23.5462 25.4833 23.5462C31.2233 23.5462 36.7377 25.8224 40.8067 29.7162ZM34.3231 41.4142H37.8824V42.5565C37.8824 43.6404 38.4422 44.5993 39.286 45.1579H11.7223C12.5662 44.5993 13.126 43.6404 13.126 42.5565V41.4142H16.6853L16.8023 41.1891C18.4817 37.8873 21.8154 35.8362 25.5084 35.8362C29.2013 35.8362 32.5351 37.8873 34.2145 41.1891L34.3231 41.4142ZM50.1645 40.9473C50.1645 42.3064 49.0532 43.4153 47.6914 43.4153H40.8485C40.4641 43.4153 40.155 43.1068 40.155 42.7233V41.0224H45.7529V40.1886H40.155V37.387H45.7529V36.5533H40.155V35.1608C40.155 34.7773 40.4641 34.4688 40.8485 34.4688H47.6914C49.0532 34.4688 50.1645 35.5777 50.1645 36.9368V40.9473Z" fill="black"/>
<path d="M46.1206 32.8345L46.2459 33.0346H47.4825V27.3482L47.307 27.2231C46.8391 26.8813 46.2961 26.7062 45.7279 26.7062H45.5775C44.4245 26.7062 43.4052 27.4399 43.0375 28.5405L42.954 28.7823L43.1294 28.9657C44.249 30.1414 45.26 31.4504 46.1206 32.8345ZM45.5775 27.54H45.7279C46.0537 27.54 46.3629 27.6233 46.647 27.7901V32.1008C45.8449 30.8501 44.9258 29.6745 43.9148 28.5822C44.224 27.9485 44.8673 27.54 45.5775 27.54Z" fill="black"/>
<path d="M4.87942 32.8345C5.74 31.4505 6.75098 30.1498 7.87893 28.9574L8.05439 28.774L7.97083 28.5322C7.60321 27.4399 6.57552 26.6979 5.43086 26.6979H5.27211C4.70396 26.6979 4.16087 26.873 3.69298 27.2148L3.52588 27.3482V33.0263H4.76245L4.87942 32.8345ZM4.3614 27.7818C4.64547 27.615 4.95461 27.5317 5.28047 27.5317H5.43086C6.14105 27.5317 6.7844 27.9402 7.09354 28.5739C6.07421 29.6662 5.15514 30.8501 4.3614 32.1008V27.7818Z" fill="black"/>
<g clip-path="url(#clip1_29_136)">
<path fill-rule="evenodd" clip-rule="evenodd" d="M41.6241 19.6897C41.5711 19.7288 41.7357 19.5606 41.6889 19.6245C41.69 19.6244 41.6879 19.628 41.6806 19.6369C41.6806 19.6369 41.8056 19.7611 41.867 19.8243C41.8883 19.8474 41.8499 19.8934 41.8238 19.8693C41.7682 19.8154 41.6366 19.6814 41.6364 19.6811L41.6241 19.6897Z" fill="black"/>
<path d="M41.4403 19.7525C41.5208 19.7517 41.6004 19.7184 41.6577 19.6618C41.7257 19.5946 41.7608 19.4951 41.7485 19.4001C41.7276 19.2374 41.5938 19.127 41.4383 19.127C41.3201 19.127 41.2053 19.2009 41.1549 19.3081C41.1163 19.3901 41.1163 19.4892 41.1549 19.5714C41.2049 19.6778 41.3179 19.7514 41.4363 19.7525C41.4376 19.7525 41.439 19.7525 41.4403 19.7525ZM41.4366 19.7004C41.3164 19.6992 41.2043 19.6063 41.182 19.4871C41.1663 19.4031 41.196 19.3122 41.2578 19.2526C41.3299 19.1829 41.4434 19.1596 41.5377 19.199C41.622 19.2344 41.6852 19.3164 41.6968 19.4068C41.7068 19.4843 41.679 19.5654 41.6244 19.6214C41.5765 19.6704 41.5093 19.6997 41.44 19.7004C41.4388 19.7004 41.4377 19.7004 41.4366 19.7004Z" fill="black"/>
</g>
</g>
<defs>
<clipPath id="clip0_29_136">
<rect width="51" height="46" fill="white"/>
</clipPath>
<clipPath id="clip1_29_136">
<rect width="1" height="1" fill="white" transform="translate(41 19)"/>
</clipPath>
</defs>
</svg>
