<svg width="50" height="50" viewBox="0 0 50 50" fill="none" xmlns="http://www.w3.org/2000/svg">
<path d="M34.6484 4.70711C29.2773 3.90633 23.75 5.74227 19.8633 9.58992C19.4727 9.96102 19.4727 10.586 19.8633 10.9571C20.2344 11.3282 20.8594 11.3477 21.2305 10.9571C24.6875 7.53914 29.5898 5.91805 34.375 6.62117C42.1875 7.77352 47.8711 14.5704 47.6172 22.4415C47.5977 23.047 47.5586 32.9688 47.5195 42.5782V43.379L37.8516 36.3477L37.3633 36.5235C34.7656 37.461 31.9531 37.6759 29.2187 37.1485C25.1367 36.3673 21.6016 34.004 19.2773 30.5274C18.9844 30.0782 18.3789 29.961 17.9297 30.254C17.4805 30.547 17.3633 31.1524 17.6562 31.6016C20.2734 35.5079 24.2383 38.1641 28.8477 39.043C31.7578 39.6095 34.7461 39.4141 37.5195 38.5157L46.6016 45.1173C46.9141 45.3321 47.2852 45.4493 47.6562 45.4493C47.9297 45.4493 48.2227 45.3907 48.4766 45.254C49.082 44.9415 49.4531 44.336 49.4531 43.672V42.5977C49.4727 36.7774 49.5312 23.1641 49.5508 22.5001C49.8437 13.6524 43.4375 5.99617 34.6484 4.70711Z" fill="black"/>
<path d="M9.375 41.543C8.57422 41.543 7.91016 42.207 7.91016 43.0273C7.91016 43.8281 8.57422 44.5117 9.375 44.5117C9.80469 44.5117 10.1758 44.3555 10.4492 44.0625C10.7227 43.7891 10.8789 43.3984 10.8594 42.9883C10.8594 42.168 10.2148 41.543 9.375 41.543Z" fill="black"/>
<path d="M19.5899 15.6445C17.9492 12.5 14.3555 10.4688 10.4297 10.4688C5.99611 10.4688 2.28517 12.9492 0.507824 17.1094C0.29298 17.5977 0.527355 18.1641 1.01564 18.3789C1.50392 18.5938 2.07032 18.3594 2.28517 17.8711C3.75001 14.4531 6.77735 12.4023 10.4102 12.4023C13.6328 12.4023 16.543 14.0234 17.832 16.5234C18.6719 18.2031 19.1992 20.8789 16.8555 24.1016C15.6836 25.7227 14.1602 26.8359 12.9297 27.7539C11.3281 28.9258 10.1367 29.8828 9.51173 31.2695C8.8672 32.6563 8.57423 34.6289 8.5547 37.4414C8.5547 37.9688 8.98439 38.418 9.51173 38.418C10.0391 38.418 10.4688 37.9883 10.4883 37.4609C10.5078 34.9219 10.7617 33.2227 11.2891 32.0703C11.7188 31.1133 12.6758 30.3711 14.1016 29.3164C15.4297 28.3398 17.0899 27.1094 18.4375 25.2734C21.5234 21.0156 20.4883 17.4219 19.5899 15.6445Z" fill="black"/>
</svg>
