<svg width="50" height="50" viewBox="0 0 50 50" fill="none" xmlns="http://www.w3.org/2000/svg">
<path d="M28.9062 1.96876C28.8633 1.97657 28.8203 1.98829 28.7812 2.00001H11.5C9.58594 2.00001 8 3.5586 8 5.46876V43.9063C8 46.1602 9.86719 48 12.125 48H37.875C40.1328 48 42 46.1602 42 43.9063V15.1875C42.0273 15.0547 42.0273 14.9141 42 14.7813V14.5C42.0078 14.2344 41.9062 13.9727 41.7188 13.7813L30.2188 2.28126C30.0273 2.09376 29.7656 1.9922 29.5 2.00001H29.1875C29.0977 1.97657 29 1.96485 28.9062 1.96876ZM11.5 4.00001H28V12.3438C28 14.3555 29.6445 16 31.6562 16H40V43.9063C40 45.0742 39.0547 46 37.875 46H12.125C10.9453 46 10 45.0742 10 43.9063V5.46876C10 4.64454 10.6602 4.00001 11.5 4.00001ZM30 4.93751L39.0625 14H31.6562C30.7227 14 30 13.2774 30 12.3438V4.93751ZM17 24V26H33V24H17ZM17 28V30H33V28H17ZM17 32V34H33V32H17ZM17 36V38H26V36H17Z" fill="black"/>
</svg>
