<svg width="69" height="69" viewBox="0 0 69 69" fill="none" xmlns="http://www.w3.org/2000/svg">
<path d="M56.3359 13.6797H26.6641L23.1484 29.8516H19.3516V45.3203H63.6484V29.8516H59.8516L56.3359 13.6797ZM60.8359 42.5078H58.7266H22.1641V32.6641H25.3984L28.9141 16.4922H54.0859L57.0039 29.8516H31.3047V32.6641H60.8359V42.5078Z" fill="black"/>
<path d="M58.7266 48.8359H52.3984V51.6484H58.7266V48.8359Z" fill="black"/>
<path d="M30.6016 48.8359H24.2734V51.6484H30.6016V48.8359Z" fill="black"/>
<path d="M28.4922 36.1797H25.6797V38.9922H28.4922V36.1797Z" fill="black"/>
<path d="M57.3203 36.1797H54.5078V38.9922H57.3203V36.1797Z" fill="black"/>
<line x1="0.741181" y1="34.9164" x2="15.2301" y2="31.0341" stroke="black" stroke-width="2"/>
<line x1="2.5" y1="20.134" x2="15.4904" y2="27.634" stroke="black" stroke-width="2"/>
<line x1="10.866" y1="12.5" x2="18.366" y2="25.4904" stroke="black" stroke-width="2"/>
</svg>
