<svg width="45" height="45" viewBox="0 0 45 45" fill="none" xmlns="http://www.w3.org/2000/svg">
<path d="M22.5001 36.8182H8.18188V38.8637H22.5001V36.8182Z" fill="black"/>
<path d="M36.8182 36.8182V38.8636H40.9091V0H10.2273V4.09091H12.2727V2.04545H38.8637V36.8182H36.8182Z" fill="black"/>
<path d="M30.6819 30.6818H8.18188V32.7272H30.6819V30.6818Z" fill="black"/>
<path d="M4.09094 6.5659V44.5704C4.09094 44.8077 4.27912 45 4.51231 45H34.3493C34.5846 45 34.7728 44.8098 34.7728 44.5704V6.5659C34.7728 6.32863 34.5846 6.13635 34.3514 6.13635H4.51231C4.27912 6.13635 4.09094 6.32658 4.09094 6.5659ZM6.1364 8.18181H32.7273V42.9545H6.1364V8.18181Z" fill="black"/>
<path d="M30.6819 12.2727H8.18188V14.3182H30.6819V12.2727Z" fill="black"/>
<path d="M30.6819 18.4091H8.18188V20.4545H30.6819V18.4091Z" fill="black"/>
<path d="M30.6819 24.5454H8.18188V26.5909H30.6819V24.5454Z" fill="black"/>
</svg>
