<svg width="64" height="34" viewBox="0 0 64 34" fill="none" xmlns="http://www.w3.org/2000/svg">
<g clip-path="url(#clip0_8_48)">
<path d="M64 17C63.995 21.5071 62.2023 25.8282 59.0153 29.0153C55.8282 32.2023 51.5071 33.995 47 34H20C19.7348 34 19.4804 33.8946 19.2929 33.7071C19.1054 33.5196 19 33.2652 19 33C19 32.7348 19.1054 32.4804 19.2929 32.2929C19.4804 32.1054 19.7348 32 20 32H39.017C36.3613 30.5864 34.1284 28.4932 32.5464 25.9342C30.9644 23.3752 30.09 20.4422 30.0124 17.4347C29.9349 14.4273 30.657 11.4531 32.105 8.81598C33.553 6.17889 35.6751 3.97339 38.2543 2.42476C40.8336 0.876133 43.7778 0.0398704 46.786 0.00139069C49.7943 -0.037089 52.7588 0.723593 55.3769 2.20574C57.9949 3.68789 60.1727 5.83838 61.6877 8.43757C63.2027 11.0368 64.0006 13.9915 64 17ZM62 17C62 14.0333 61.1203 11.1332 59.472 8.66644C57.8238 6.1997 55.4811 4.27712 52.7402 3.1418C49.9994 2.00649 46.9834 1.70944 44.0736 2.28821C41.1639 2.86699 38.4912 4.2956 36.3934 6.39339C34.2956 8.49118 32.867 11.1639 32.2882 14.0736C31.7094 16.9834 32.0065 19.9994 33.1418 22.7402C34.2771 25.4811 36.1997 27.8238 38.6664 29.472C41.1332 31.1203 44.0333 32 47 32C50.9769 31.9956 54.7896 30.4138 57.6017 27.6017C60.4138 24.7896 61.9956 20.9769 62 17ZM21 27C21 26.7348 20.8946 26.4804 20.7071 26.2929C20.5196 26.1054 20.2652 26 20 26H8C7.73478 26 7.48043 26.1054 7.29289 26.2929C7.10536 26.4804 7 26.7348 7 27C7 27.2652 7.10536 27.5196 7.29289 27.7071C7.48043 27.8946 7.73478 28 8 28H20C20.2652 28 20.5196 27.8946 20.7071 27.7071C20.8946 27.5196 21 27.2652 21 27ZM14 22C13.7348 22 13.4804 22.1054 13.2929 22.2929C13.1054 22.4804 13 22.7348 13 23C13 23.2652 13.1054 23.5196 13.2929 23.7071C13.4804 23.8946 13.7348 24 14 24H26C26.2652 24 26.5196 23.8946 26.7071 23.7071C26.8946 23.5196 27 23.2652 27 23C27 22.7348 26.8946 22.4804 26.7071 22.2929C26.5196 22.1054 26.2652 22 26 22H14ZM26 17C26 16.7348 25.8946 16.4804 25.7071 16.2929C25.5196 16.1054 25.2652 16 25 16H1C0.734784 16 0.48043 16.1054 0.292893 16.2929C0.105357 16.4804 0 16.7348 0 17C0 17.2652 0.105357 17.5196 0.292893 17.7071C0.48043 17.8946 0.734784 18 1 18H25C25.2652 18 25.5196 17.8946 25.7071 17.7071C25.8946 17.5196 26 17.2652 26 17ZM54 16H48V4.99999C48 4.73478 47.8946 4.48042 47.7071 4.29289C47.5196 4.10535 47.2652 3.99999 47 3.99999C46.7348 3.99999 46.4804 4.10535 46.2929 4.29289C46.1054 4.48042 46 4.73478 46 4.99999V17C46 17.2652 46.1054 17.5196 46.2929 17.7071C46.4804 17.8946 46.7348 18 47 18H54C54.2652 18 54.5196 17.8946 54.7071 17.7071C54.8946 17.5196 55 17.2652 55 17C55 16.7348 54.8946 16.4804 54.7071 16.2929C54.5196 16.1054 54.2652 16 54 16Z" fill="black"/>
</g>
<defs>
<clipPath id="clip0_8_48">
<rect width="64" height="34" fill="white"/>
</clipPath>
</defs>
</svg>
