<svg width="49" height="51" viewBox="0 0 49 51" fill="none" xmlns="http://www.w3.org/2000/svg">
<g clip-path="url(#clip0_29_317)">
<path d="M35.2172 34.9412L26.1082 48.9226" stroke="black" stroke-width="1.15" stroke-linecap="round" stroke-linejoin="round"/>
<path d="M21.4846 27.4406C21.4846 27.4406 22.5651 31.8688 19.3236 33.7596C16.082 35.6503 10.6795 38.1754 10.1392 41.9693C9.81484 44.276 9.81484 46.6161 10.1392 48.9227" stroke="black" stroke-width="1.15" stroke-linecap="round" stroke-linejoin="round"/>
<path d="M17.2505 12.8744C17.2505 18.4222 18.6577 28.8212 26.3972 28.8212" stroke="black" stroke-width="1.15" stroke-linecap="round" stroke-linejoin="round"/>
<path d="M30.9705 27.4406C30.9705 27.4406 29.89 31.8688 33.1316 33.7596C36.3731 35.6503 41.7757 38.1879 42.3159 41.9818C42.6403 44.2885 42.6403 46.6285 42.3159 48.9352" stroke="black" stroke-width="1.15" stroke-linecap="round" stroke-linejoin="round"/>
<path d="M35.1794 12.8744C35.1794 18.4222 33.7723 28.8212 26.0328 28.8212" stroke="black" stroke-width="1.15" stroke-linecap="round" stroke-linejoin="round"/>
<path d="M29.199 22.9749C28.3148 23.3713 27.3553 23.5764 26.3846 23.5764C25.414 23.5764 24.4545 23.3713 23.5703 22.9749" stroke="black" stroke-width="1.15" stroke-linecap="round" stroke-linejoin="round"/>
<path d="M26.0956 0.559692C29.312 0.559692 30.8197 3.8436 34.413 4.93823C38.0064 6.03286 39.3256 6.18213 39.5266 7.31408C39.7276 8.44603 37.2525 9.50335 36.8756 10.4114C36.8413 10.4967 36.8119 10.584 36.7876 10.6726C36.6651 11.0663 36.4304 11.4165 36.1116 11.6813C35.7929 11.9461 35.4038 12.1141 34.991 12.1653C32.0471 12.6265 29.0753 12.8924 26.0956 12.9614V12.9614C23.1159 12.8924 20.1441 12.6265 17.2002 12.1653C16.7874 12.1141 16.3982 11.9461 16.0795 11.6813C15.7608 11.4165 15.5261 11.0663 15.4035 10.6726C15.3793 10.584 15.3499 10.4967 15.3156 10.4114C14.9387 9.50335 12.4761 8.40872 12.6646 7.31408C12.853 6.21945 14.1723 6.07018 17.7782 4.93823C21.3841 3.80628 22.8917 0.559692 26.0956 0.559692V0.559692Z" stroke="black" stroke-width="1.15" stroke-linecap="round" stroke-linejoin="round"/>
<path d="M17.2128 12.24C17.2128 12.24 18.7205 16.9793 26.1082 16.9793C33.4958 16.9793 35.0035 12.24 35.0035 12.24" stroke="black" stroke-width="1.15" stroke-linecap="round" stroke-linejoin="round"/>
</g>
<defs>
<clipPath id="clip0_29_317">
<rect width="49" height="51" fill="white"/>
</clipPath>
</defs>
</svg>
