<svg width="43" height="43" viewBox="0 0 43 43" fill="none" xmlns="http://www.w3.org/2000/svg">
<g clip-path="url(#clip0_29_339)">
<path d="M32.9218 27.2042C32.5966 26.8969 32.1805 26.7033 31.7359 26.6524C31.2914 26.6016 30.8423 26.6962 30.456 26.922L29.7842 24.1942V24.1337V24.08C29.7512 24.0076 29.7057 23.9416 29.6498 23.8851L28.7024 22.9378C28.5152 22.7499 28.2927 22.6008 28.0477 22.4991C27.8027 22.3973 27.54 22.345 27.2747 22.345C27.0094 22.345 26.7467 22.3973 26.5017 22.4991C26.2567 22.6008 26.0342 22.7499 25.847 22.9378L25.3699 22.4541L34.2656 13.4711C34.3438 13.3936 34.4398 13.3366 34.5453 13.3049C34.6507 13.2733 34.7623 13.2681 34.8703 13.2897C35.894 13.5102 36.9555 13.4849 37.9676 13.2158C39.1155 12.9063 40.162 12.301 41.0027 11.4604C41.8433 10.6197 42.4486 9.57318 42.7581 8.42531C42.9717 7.62645 43.0332 6.79455 42.9395 5.97296C42.9108 5.72022 42.811 5.48081 42.6516 5.28256C42.4923 5.0843 42.2799 4.93535 42.0392 4.85302C41.7986 4.77068 41.5395 4.75835 41.2921 4.81745C41.0447 4.87655 40.8191 5.00465 40.6417 5.18687L38.7738 7.09499C38.7114 7.15797 38.6371 7.20795 38.5552 7.24206C38.4733 7.27617 38.3855 7.29373 38.2968 7.29373C38.2081 7.29373 38.1203 7.27617 38.0384 7.24206C37.9566 7.20795 37.8822 7.15797 37.8198 7.09499L35.9385 5.19359C35.8746 5.12922 35.8244 5.05258 35.7909 4.96828C35.7575 4.88399 35.7414 4.79379 35.7437 4.70312C35.7432 4.61309 35.7607 4.52388 35.7954 4.44078C35.83 4.35768 35.881 4.28238 35.9452 4.21937L37.8198 2.31124C37.9989 2.13181 38.1236 1.90538 38.1795 1.65809C38.2353 1.4108 38.2201 1.15275 38.1356 0.913743C38.05 0.679667 37.9009 0.474011 37.7052 0.319765C37.5094 0.165518 37.2746 0.06876 37.027 0.0403053C35.423 -0.138022 33.8085 0.266916 32.4786 1.18108C31.1487 2.09524 30.1922 3.45755 29.7842 5.0189C29.5148 6.02868 29.4895 7.08803 29.7102 8.10952C29.7397 8.21774 29.7416 8.3316 29.7158 8.44075C29.69 8.54989 29.6373 8.65083 29.5624 8.73437L20.5526 17.6972L9.56071 6.71874L9.21134 4.94499C9.13426 4.55313 8.9425 4.193 8.6604 3.91031L5.1465 0.396399C5.0217 0.271462 4.8735 0.172348 4.71037 0.104725C4.54724 0.0371018 4.37238 0.00229511 4.19579 0.00229511C4.0192 0.00229511 3.84435 0.0371018 3.68122 0.104725C3.51809 0.172348 3.36989 0.271462 3.24509 0.396399L0.39634 3.24515C0.271403 3.36995 0.172289 3.51815 0.104666 3.68128C0.0370424 3.8444 0.00223571 4.01926 0.00223571 4.19585C0.00223571 4.37244 0.0370424 4.5473 0.104666 4.71043C0.172289 4.87356 0.271403 5.02176 0.39634 5.14656L3.90353 8.66046C4.18623 8.94256 4.54635 9.13431 4.93821 9.2114L6.71197 9.56077L17.6971 20.5526L8.73431 29.5625C8.65609 29.64 8.56004 29.697 8.4546 29.7286C8.34916 29.7603 8.23756 29.7655 8.12962 29.7439C7.10585 29.5234 6.04437 29.5487 5.03228 29.8178C3.8847 30.1212 2.83667 30.7201 1.99262 31.5547C1.14857 32.3894 0.537966 33.4306 0.221652 34.5747C0.00803783 35.3735 -0.0534995 36.2054 0.0402459 37.027C0.0703919 37.277 0.170144 37.5134 0.328135 37.7094C0.486125 37.9054 0.696 38.0531 0.93384 38.1356C1.17437 38.2207 1.43416 38.2356 1.68283 38.1785C1.93149 38.1214 2.15876 37.9946 2.33806 37.8131L4.20587 35.905C4.26833 35.842 4.34264 35.792 4.42452 35.7579C4.50639 35.7238 4.59421 35.7063 4.6829 35.7063C4.7716 35.7063 4.85942 35.7238 4.94129 35.7579C5.02316 35.792 5.09747 35.842 5.15993 35.905L7.06134 37.8064C7.18547 37.9315 7.25544 38.1005 7.25618 38.2767C7.25671 38.3667 7.23914 38.4559 7.20451 38.5391C7.16989 38.6222 7.11891 38.6974 7.05462 38.7605L5.18009 40.6686C4.99973 40.8468 4.87346 41.0724 4.81586 41.3193C4.75827 41.5662 4.7717 41.8243 4.85461 42.0639C4.93753 42.3035 5.08653 42.5148 5.28441 42.6733C5.4823 42.8318 5.72098 42.9311 5.9729 42.9597C6.22059 42.9865 6.46955 43 6.71868 43C8.2041 42.9993 9.64741 42.5064 10.8229 41.5983C11.9985 40.6902 12.8399 39.4182 13.2157 37.9811C13.485 36.9713 13.5104 35.912 13.2896 34.8905C13.2602 34.7822 13.2582 34.6684 13.2841 34.5592C13.3099 34.4501 13.3626 34.3492 13.4374 34.2656L22.4473 25.3028L22.931 25.7798C22.7431 25.9671 22.594 26.1896 22.4923 26.4346C22.3906 26.6796 22.3382 26.9423 22.3382 27.2076C22.3382 27.4729 22.3906 27.7355 22.4923 27.9805C22.594 28.2255 22.7431 28.448 22.931 28.6353L23.8784 29.5625C23.9349 29.6185 24.0008 29.664 24.0732 29.6969H24.127H24.1874L26.9085 30.3687C26.653 30.7622 26.5427 31.2325 26.5966 31.6985C26.6506 32.1646 26.8654 32.5972 27.2042 32.9219L36.7112 42.4087C37.0891 42.7862 37.6014 42.9982 38.1356 42.9982C38.6697 42.9982 39.182 42.7862 39.5599 42.4087L42.4087 39.56C42.7861 39.1821 42.9982 38.6698 42.9982 38.1356C42.9982 37.6015 42.7861 37.0892 42.4087 36.7112L32.9218 27.2042ZM30.4829 9.66156C30.7185 9.42483 30.8915 9.13329 30.9865 8.81313C31.0815 8.49297 31.0955 8.15423 31.0271 7.82734C30.8533 7.0169 30.8717 6.17703 31.0809 5.37499C31.3267 4.45 31.813 3.60657 32.4904 2.93039C33.1677 2.25421 34.012 1.76937 34.9374 1.52515C35.5738 1.35178 36.2379 1.30386 36.8926 1.38406L34.9912 3.29218C34.8033 3.47944 34.6542 3.70195 34.5524 3.94695C34.4507 4.19196 34.3983 4.45463 34.3983 4.71991C34.3983 4.9852 34.4507 5.24787 34.5524 5.49288C34.6542 5.73788 34.8033 5.96039 34.9912 6.14765L36.8926 8.06249C37.0799 8.2504 37.3024 8.3995 37.5474 8.50123C37.7924 8.60296 38.055 8.65533 38.3203 8.65533C38.5856 8.65533 38.8483 8.60296 39.0933 8.50123C39.3383 8.3995 39.5608 8.2504 39.7481 8.06249L41.6562 6.12077C41.7173 6.77366 41.6557 7.43222 41.4748 8.06249C41.2275 8.98022 40.7437 9.81696 40.0716 10.489C39.3996 11.1611 38.5628 11.6449 37.6451 11.8922C36.8371 12.1079 35.9892 12.1263 35.1726 11.9459C34.8447 11.8764 34.5046 11.8898 34.1832 11.9848C33.8617 12.0798 33.5691 12.2535 33.3317 12.4901L24.3487 21.5L21.4999 18.6512L30.4829 9.66156ZM12.517 33.3384C12.2814 33.5752 12.1083 33.8667 12.0134 34.1869C11.9184 34.507 11.9044 34.8458 11.9727 35.1726C12.1466 35.9831 12.1281 36.823 11.919 37.625C11.6724 38.543 11.1887 39.3801 10.5166 40.0523C9.84441 40.7244 9.00734 41.2081 8.08931 41.4547C7.4529 41.628 6.78886 41.676 6.13415 41.5958L8.00868 39.6809C8.38614 39.303 8.59816 38.7907 8.59816 38.2566C8.59816 37.7224 8.38614 37.2101 8.00868 36.8322L6.10728 34.9375C5.92002 34.7496 5.69751 34.6005 5.45251 34.4988C5.2075 34.397 4.94483 34.3447 4.67954 34.3447C4.41426 34.3447 4.15158 34.397 3.90658 34.4988C3.66158 34.6005 3.43907 34.7496 3.25181 34.9375L1.37728 36.8725C1.30613 36.2239 1.35625 35.5677 1.52509 34.9375C1.76995 34.0124 2.25499 33.1684 2.93107 32.4912C3.60716 31.8139 4.45026 31.3274 5.37493 31.0809C6.18337 30.8686 7.03053 30.8502 7.84743 31.0272C8.17534 31.0967 8.51541 31.0833 8.83685 30.9883C9.1583 30.8933 9.45097 30.7196 9.68837 30.483L18.6512 21.5L21.4999 24.3487L12.517 33.3384ZM27.2042 23.6836C27.2926 23.6831 27.3802 23.7 27.4621 23.7335C27.544 23.7669 27.6184 23.8162 27.6812 23.8784L28.1582 24.3555L24.3554 28.1583L23.8784 27.6812C23.7532 27.5554 23.683 27.3851 23.683 27.2076C23.683 27.0301 23.7532 26.8598 23.8784 26.7339L26.7338 23.8784C26.859 23.7543 27.0279 23.6843 27.2042 23.6836ZM4.19243 1.34374L5.37493 2.53296L2.5329 5.37499L1.34368 4.19249L4.19243 1.34374ZM4.86431 7.7064L3.00321 5.85874L5.85868 3.00327L7.70634 4.85765C7.80162 4.9507 7.8671 5.06997 7.89447 5.20031L8.21696 6.82624L6.82618 8.21702L5.20025 7.89452C5.06991 7.86716 4.95064 7.80168 4.85759 7.7064H4.86431ZM8.00197 8.94265L8.94931 7.99531L24.8593 23.8784L23.8784 24.8594L8.00197 8.94265ZM28.7495 25.6723L29.3206 27.95L27.9768 29.2937L25.6992 28.7227L28.7495 25.6723ZM41.4613 38.6059L38.6059 41.4614C38.48 41.5865 38.3097 41.6568 38.1322 41.6568C37.9547 41.6568 37.7844 41.5865 37.6585 41.4614L28.1582 31.9544C28.0341 31.8292 27.9641 31.6603 27.9634 31.4841C27.9629 31.3956 27.9798 31.308 28.0132 31.2261C28.0467 31.1443 28.0959 31.0698 28.1582 31.007L31.007 28.1583C31.0697 28.096 31.1442 28.0467 31.2261 28.0133C31.3079 27.9799 31.3956 27.9629 31.484 27.9634C31.6603 27.9642 31.8292 28.0341 31.9543 28.1583L41.4613 37.6586C41.5236 37.7214 41.5729 37.7958 41.6063 37.8777C41.6397 37.9595 41.6567 38.0472 41.6562 38.1356C41.6554 38.3119 41.5855 38.4808 41.4613 38.6059Z" fill="black"/>
<path d="M29.8178 31.2421C29.755 31.1806 29.6706 31.1461 29.5827 31.1461C29.4947 31.1461 29.4103 31.1806 29.3475 31.2421C29.316 31.2734 29.291 31.3105 29.274 31.3515C29.2569 31.3924 29.2481 31.4363 29.2481 31.4807C29.2481 31.525 29.2569 31.5689 29.274 31.6099C29.291 31.6508 29.316 31.6879 29.3475 31.7192L37.8938 40.2721C37.9578 40.3365 38.0448 40.3727 38.1356 40.3729C38.1796 40.3727 38.223 40.3636 38.2634 40.3463C38.3038 40.329 38.3403 40.3038 38.3708 40.2721C38.4023 40.2409 38.4273 40.2038 38.4443 40.1628C38.4614 40.1219 38.4702 40.078 38.4702 40.0336C38.4702 39.9893 38.4614 39.9454 38.4443 39.9044C38.4273 39.8635 38.4023 39.8263 38.3708 39.7951L29.8178 31.2421Z" fill="black"/>
<path d="M30.7719 30.2948C30.7086 30.2316 30.6228 30.196 30.5334 30.196C30.4439 30.196 30.3581 30.2316 30.2948 30.2948C30.2316 30.3581 30.196 30.4439 30.196 30.5334C30.196 30.6228 30.2316 30.7086 30.2948 30.7719L38.8478 39.3181C38.8783 39.3498 38.9148 39.375 38.9552 39.3923C38.9956 39.4096 39.039 39.4186 39.083 39.4189C39.127 39.4194 39.1707 39.4108 39.2112 39.3934C39.2517 39.376 39.2881 39.3504 39.3181 39.3181C39.3503 39.288 39.3759 39.2515 39.3934 39.2111C39.4109 39.1706 39.4199 39.127 39.4199 39.083C39.4199 39.0389 39.4109 38.9953 39.3934 38.9548C39.3759 38.9144 39.3503 38.878 39.3181 38.8478L30.7719 30.2948Z" fill="black"/>
<path d="M31.7192 29.3475C31.688 29.3161 31.6508 29.2911 31.6099 29.274C31.569 29.2569 31.525 29.2482 31.4807 29.2482C31.4363 29.2482 31.3924 29.2569 31.3515 29.274C31.3106 29.2911 31.2734 29.3161 31.2422 29.3475C31.1806 29.4103 31.1461 29.4948 31.1461 29.5827C31.1461 29.6706 31.1806 29.7551 31.2422 29.8179L39.7951 38.3708C39.8592 38.4351 39.9462 38.4714 40.037 38.4716C40.1256 38.4703 40.2102 38.4341 40.2722 38.3708C40.3342 38.3069 40.3688 38.2213 40.3688 38.1323C40.3688 38.0433 40.3342 37.9577 40.2722 37.8938L31.7192 29.3475Z" fill="black"/>
</g>
<defs>
<clipPath id="clip0_29_339">
<rect width="43" height="43" fill="white"/>
</clipPath>
</defs>
</svg>
